<?xml version="1.0" encoding="UTF-8"?>
<svg width="19px" height="19px" viewBox="0 0 19 19" version="1.1" xmlns="http://www.w3.org/2000/svg" xmlns:xlink="http://www.w3.org/1999/xlink">
    <!-- Generator: Sketch Beta 54 (76473) - https://sketchapp.com -->
    <title>Combined Shape</title>
    <desc>Created with Sketch Beta.</desc>
    <g id="ooto-Productivity-Dashboards" stroke="none" stroke-width="1" fill="none" fill-rule="evenodd">
        <g id="ooto-Sessions" transform="translate(-36.000000, -260.000000)" fill="#999999">
            <g id="main-nav" transform="translate(-6.000000, 0.000000)">
                <g id="sessions-icon" transform="translate(42.000000, 257.000000)">
                    <g id="Group" transform="translate(-0.000219, 3.102449)">
                        <path d="M6.614819,10.5265812 C5.72937146,9.63344417 5.17522815,8.50011731 4.98360383,7.98843076 C4.97135299,7.9808964 4.9585917,7.97386433 4.94685132,7.96582768 C4.79320541,7.87189932 4.68192699,7.80459237 4.60484881,7.67098305 C4.04692531,6.69905062 3.90246754,5.91346801 4.17606954,5.33784291 C4.29806745,5.08117238 4.47672548,4.91642104 4.64313267,4.81144229 C4.64568493,4.3860021 4.68243744,3.63306839 4.87947172,2.90123089 C5.15460508,1.89614726 6.42409797,-8.8817842e-14 9.26322924,-8.8817842e-14 C12.1023605,-8.8817842e-14 13.3718534,1.89614726 13.6459659,2.89922173 C13.844021,3.6325661 13.8807736,4.38549981 13.8833258,4.81144229 C14.0492226,4.91642104 14.2278806,5.08117238 14.3498785,5.33784291 C14.6234805,5.91346801 14.4795332,6.69905062 13.9210992,7.67048076 C13.8445315,7.80459237 13.7332531,7.87189932 13.5790967,7.96582768 C13.5673563,7.97386433 13.5551055,7.9808964 13.5428547,7.98843076 C13.3506736,8.5003524 12.796526,9.63348059 11.9113449,10.5264941 C12.2564715,10.780019 12.9073822,11.1882326 13.8358028,11.4769901 C15.75459,12.0727068 18.3287969,13.334461 18.5258312,17.4020108 C18.5370611,17.647631 18.3670808,17.8656251 18.123085,17.9168588 C17.9725018,17.9490054 14.3794336,18.6974184 9.2631782,18.6974184 C4.14641231,18.6974184 0.55385462,17.9490054 0.403271426,17.9168588 C0.159275606,17.8656251 -0.0107047447,17.647631 0.00052518839,17.4020108 C0.197559469,13.3349633 2.77125596,12.0727068 4.69055362,11.4764878 C5.6186657,11.1882398 6.26969051,10.780031 6.614819,10.5265812 Z" id="Combined-Shape"></path>
                    </g>
                </g>
            </g>
        </g>
    </g>
</svg>