<?xml version="1.0" encoding="UTF-8"?>
<svg width="100px" height="100px" viewBox="0 0 100 100" version="1.1" xmlns="http://www.w3.org/2000/svg" xmlns:xlink="http://www.w3.org/1999/xlink">
    <!-- Generator: Sketch Beta 54 (76473) - https://sketchapp.com -->
    <title>Combined Shape</title>
    <desc>Created with Sketch Beta.</desc>
    <g id="ooto-Productivity-Dashboards" stroke="none" stroke-width="1" fill="none" fill-rule="evenodd">
        <path d="M50,100 C22.3857625,100 0,77.6142375 0,50 C0,22.3857625 22.3857625,0 50,0 C77.6142375,0 100,22.3857625 100,50 C100,77.6142375 77.6142375,100 50,100 Z M54,48 C53.4477153,48 53,47.5522847 53,47 L53,18 C53,14.6666667 48,14.6666667 48,18 L48,47 C48,47.5522847 47.5522847,48 47,48 L18,48 C14.6666667,48 14.6666667,53 18,53 L47,53 C47.5522847,53 48,53.4477153 48,54 L48,83 C48,86.3333333 53,86.3333333 53,83 L53,54 C53,53.4477153 53.4477153,53 54,53 L83,53 C86.3333333,53 86.3333333,48 83,48 L54,48 Z" id="Combined-Shape" fill="#999999"></path>
    </g>
</svg>