<?xml version="1.0" encoding="UTF-8"?>
<svg width="21px" height="21px" viewBox="0 0 21 21" version="1.1" xmlns="http://www.w3.org/2000/svg" xmlns:xlink="http://www.w3.org/1999/xlink">
    <!-- Generator: Sketch Beta 54 (76473) - https://sketchapp.com -->
    <title>Combined Shape</title>
    <desc>Created with Sketch Beta.</desc>
    <g id="ooto-Productivity-Dashboards" stroke="none" stroke-width="1" fill="none" fill-rule="evenodd">
        <g id="ooto-Sessions" transform="translate(-39.000000, -547.000000)" fill="#999999">
            <g id="main-nav" transform="translate(-6.000000, 0.000000)">
                <g id="settings-icon" transform="translate(45.000000, 547.000000)">
                    <path d="M11.1075391,21.0000457 L9.89227826,21.0000457 C9.23032174,21.0000457 8.66377826,20.5270891 8.54462609,19.8756326 L8.36886522,18.906437 C7.56036522,18.7019152 6.78838696,18.3809804 6.06616957,17.9486543 L5.25310435,18.5120022 C4.72125652,18.8790457 3.96114783,18.8101109 3.50508261,18.3540457 L2.6459087,17.4948717 C2.17751739,17.026937 2.11132174,16.2914804 2.48795217,15.74685 L3.05084348,14.9342413 C2.61897391,14.2115674 2.29803913,13.4391326 2.09397391,12.6310891 L1.12477826,12.4553283 C0.472865217,12.3366326 -9.13043477e-05,11.7700891 -9.13043477e-05,11.1076761 L-9.13043477e-05,9.89241522 C-9.13043477e-05,9.23000217 0.472865217,8.66300217 1.12477826,8.54521957 L2.09397391,8.36900217 C2.29803913,7.56050217 2.61897391,6.78852391 3.05084348,6.06585 L2.48795217,5.2532413 C2.11132174,4.70815435 2.17751739,3.97315435 2.6459087,3.50521957 L3.50508261,2.64604565 C3.96114783,2.18998043 4.72171304,2.12058913 5.25310435,2.48808913 L6.06616957,3.05143696 C6.78838696,2.61911087 7.56082174,2.29817609 8.36886522,2.09365435 L8.54462609,1.12491522 C8.66377826,0.473002174 9.23032174,4.56521739e-05 9.89227826,4.56521739e-05 L11.1075391,4.56521739e-05 C11.7694957,4.56521739e-05 12.3364957,0.473002174 12.4551913,1.1244587 L12.6314087,2.09365435 C13.4394522,2.29817609 14.2114304,2.61911087 14.9341043,3.05143696 L15.746713,2.48808913 C16.2785609,2.12058913 17.0391261,2.18998043 17.4947348,2.64604565 L18.3543652,3.50521957 C18.8227565,3.97315435 18.8889522,4.70815435 18.5118652,5.2532413 L17.9489739,6.06585 C18.3808435,6.78852391 18.7017783,7.56050217 18.9063,8.36900217 L19.8754957,8.54476304 C20.5269522,8.66300217 20.9999087,9.23000217 20.9999087,9.89241522 L20.9999087,11.1076761 C20.9999087,11.7700891 20.5269522,12.3366326 19.8754957,12.4548717 L18.9063,12.6310891 C18.7017783,13.4391326 18.3808435,14.2115674 17.9489739,14.9342413 L18.5118652,15.74685 C18.8889522,16.2914804 18.8227565,17.026937 18.3543652,17.4948717 L17.4947348,18.3540457 C17.2363435,18.612437 16.8921261,18.7553283 16.5259957,18.7553283 C16.2466043,18.7553283 15.9772565,18.6708717 15.7471696,18.5120022 L14.9341043,17.9486543 C14.211887,18.3809804 13.4394522,18.7019152 12.6314087,18.906437 L12.4551913,19.8751761 C12.3364957,20.5270891 11.7694957,21.0000457 11.1075391,21.0000457 Z M10.5,14.6086957 C12.7652609,14.6086957 14.6086957,12.7657174 14.6086957,10.5 C14.6086957,8.23428261 12.7652609,6.39130435 10.5,6.39130435 C8.23473913,6.39130435 6.39130435,8.23428261 6.39130435,10.5 C6.39130435,12.7657174 8.23473913,14.6086957 10.5,14.6086957 Z" id="Combined-Shape"></path>
                </g>
            </g>
        </g>
    </g>
</svg>